<svg xmlns="http://www.w3.org/2000/svg" style="display:none"><symbol id="apple" viewbox="0 0 512 512"><path d="M395.748 272.046c-.646-64.841 52.88-95.938 55.271-97.483-30.075-44.01-76.925-50.039-93.62-50.736-39.871-4.037-77.798 23.474-98.033 23.474-20.184 0-51.409-22.877-84.476-22.276-43.458.646-83.529 25.269-105.906 64.19-45.152 78.35-11.563 194.42 32.445 257.963 21.504 31.104 47.146 66.038 80.813 64.79 32.421-1.294 44.681-20.979 83.878-20.979 39.196 0 50.215 20.979 84.524 20.335 34.888-.648 56.991-31.699 78.347-62.898 24.694-36.084 34.862-71.019 35.462-72.812-.775-.354-68.031-26.119-68.705-103.568zM331.28 81.761C349.149 60.082 361.21 30.005 357.92 0c-25.739 1.048-56.938 17.145-75.405 38.775-16.57 19.188-31.075 49.813-27.188 79.218 28.734 2.242 58.065-14.602 75.953-36.232z" data-original="#000000" class="active-path" data-old_color="#ffffff" fill="#fff"/></symbol><symbol id="facebook-logo" viewbox="0 0 96.124 96.123"><path d="M72.089.02L59.624 0C45.62 0 36.57 9.285 36.57 23.656v10.907H24.037a1.96 1.96 0 0 0-1.96 1.961v15.803a1.96 1.96 0 0 0 1.96 1.96H36.57v39.876a1.96 1.96 0 0 0 1.96 1.96h16.352a1.96 1.96 0 0 0 1.96-1.96V54.287h14.654a1.96 1.96 0 0 0 1.96-1.96l.006-15.803a1.963 1.963 0 0 0-1.961-1.961H56.842v-9.246c0-4.444 1.059-6.7 6.848-6.7l8.397-.003a1.96 1.96 0 0 0 1.959-1.96V1.98A1.96 1.96 0 0 0 72.089.02z" data-original="#000000" class="active-path" data-old_color="#ffffff" fill="#fff"/></symbol><symbol id="facebook" viewbox="0 0 90 90"><path d="M90 15.001C90 7.119 82.884 0 75 0H15C7.116 0 0 7.119 0 15.001v59.998C0 82.881 7.116 90 15.001 90H45V56H34V41h11v-5.844C45 25.077 52.568 16 61.875 16H74v15H61.875C60.548 31 59 32.611 59 35.024V41h15v15H59v34h16c7.884 0 15-7.119 15-15.001V15.001z" data-original="#000000" class="active-path" data-old_color="#ffffff" fill="#fff"/></symbol><symbol id="linkedin-letters" viewbox="0 0 438.536 438.535"><path data-original="#000000" class="active-path" data-old_color="#ffffff" fill="#fff" d="M5.424 145.895H99.64v282.932H5.424zM408.842 171.739c-19.791-21.604-45.967-32.408-78.512-32.408-11.991 0-22.891 1.475-32.695 4.427-9.801 2.95-18.079 7.089-24.838 12.419-6.755 5.33-12.135 10.278-16.129 14.844-3.798 4.337-7.512 9.389-11.136 15.104v-40.232h-93.935l.288 13.706c.193 9.139.288 37.307.288 84.508 0 47.205-.19 108.777-.572 184.722h93.931V270.942c0-9.705 1.041-17.412 3.139-23.127 4-9.712 10.037-17.843 18.131-24.407 8.093-6.572 18.13-9.855 30.125-9.855 16.364 0 28.407 5.662 36.117 16.987 7.707 11.324 11.561 26.98 11.561 46.966V428.82h93.931V266.664c-.007-41.688-9.897-73.328-29.694-94.925zM53.103 9.708c-15.796 0-28.595 4.619-38.4 13.848C4.899 32.787 0 44.441 0 58.529 0 72.42 4.758 84.034 14.275 93.358c9.514 9.325 22.078 13.99 37.685 13.99h.571c15.99 0 28.887-4.661 38.688-13.99 9.801-9.324 14.606-20.934 14.417-34.829-.19-14.087-5.047-25.742-14.561-34.973C81.562 14.323 68.9 9.708 53.103 9.708z"/></symbol><symbol id="linkedin" viewbox="0 0 512 512"><path d="M437 0H75C33.648 0 0 33.648 0 75v362c0 41.352 33.648 75 75 75h362c41.352 0 75-33.648 75-75V75c0-41.352-33.648-75-75-75zM181 406h-60V196h60zm0-240h-60v-60h60zm210 240h-60V286c0-16.54-13.46-30-30-30s-30 13.46-30 30v120h-60V196h60v11.309C286.719 202.422 296.93 196 316 196c40.691.043 75 36.547 75 79.688zm0 0" data-original="#000000" class="active-path" data-old_color="#ffffff" fill="#fff"/></symbol><symbol id="pinterest" viewbox="0 0 510 510"><path d="M459 0H51C22.95 0 0 22.95 0 51v408c0 28.05 22.95 51 51 51h408c28.05 0 51-22.95 51-51V51c0-28.05-22.95-51-51-51zM280.5 362.1c-20.4 0-40.8-7.649-53.55-22.949l-25.5 81.6-2.55 5.1c-5.1 7.65-12.75 12.75-22.95 12.75-15.3 0-28.05-12.75-28.05-28.05v-2.55l2.55-5.1 45.9-142.801s-5.1-15.3-5.1-38.25c0-43.35 22.95-56.1 43.35-56.1 17.85 0 35.7 7.65 35.7 33.15 0 33.15-22.95 51-22.95 76.5 0 17.85 15.3 33.149 33.15 33.149 58.65 0 81.6-45.899 81.6-86.7 0-56.1-48.449-102-107.1-102-58.65 0-107.1 45.9-107.1 102 0 17.85 5.1 33.15 12.75 48.45 2.55 5.101 2.55 7.65 2.55 12.75 0 15.3-10.2 25.5-25.5 25.5-10.2 0-17.85-5.1-22.95-12.75-12.75-22.95-20.4-48.45-20.4-76.5 0-84.15 71.4-153 158.1-153s158.1 68.85 158.1 153C413.1 290.7 372.3 362.1 280.5 362.1z" data-original="#000000" class="active-path" data-old_color="#ffffff" fill="#fff"/></symbol><symbol id="skype" viewbox="0 0 430.123 430.123"><path d="M412.164 246.198a199.284 199.284 0 0 0 2.45-31.148c0-110.215-89.342-199.555-199.56-199.555-10.576 0-20.995.871-31.141 2.458C165.534 6.581 143.842 0 120.595 0 53.996 0 .005 53.984.005 120.59c0 23.242 6.585 44.916 17.952 63.332-1.573 10.172-2.439 20.528-2.439 31.132 0 110.223 89.34 199.536 199.532 199.536 10.585 0 21.007-.816 31.152-2.417 18.398 11.35 40.072 17.949 63.314 17.949 66.617 0 120.602-53.998 120.602-120.602.005-23.251-6.576-44.92-17.954-63.322zM309.801 305.81c-8.442 12.153-20.843 21.65-37.047 28.479-16.237 6.847-35.428 10.254-57.59 10.254-26.562 0-48.554-4.648-65.913-14.034-12.305-6.721-22.313-15.737-30.007-26.98-7.71-11.252-11.619-22.271-11.619-33.015 0-6.338 2.417-11.85 7.122-16.344 4.754-4.527 10.877-6.796 18.104-6.796 5.92 0 11.005 1.783 15.145 5.316 4.109 3.532 7.556 8.667 10.375 15.443 3.379 7.85 7.049 14.412 10.954 19.648 3.881 5.171 9.343 9.488 16.417 12.867 6.996 3.388 16.307 5.082 27.958 5.082 15.945 0 28.831-3.449 38.693-10.253 9.912-6.866 14.673-15.22 14.673-25.314 0-8.051-2.567-14.445-7.831-19.43-5.312-5.05-12.172-8.896-20.685-11.579-8.546-2.711-20.02-5.586-34.399-8.615-19.308-4.214-35.456-9.119-48.533-14.752-13.094-5.654-23.522-13.383-31.251-23.146-7.745-9.859-11.607-22.113-11.607-36.627 0-13.84 4.077-26.217 12.239-36.989 8.158-10.802 19.961-19.07 35.351-24.829 15.336-5.757 33.391-8.637 54.075-8.637 16.541 0 30.849 1.914 42.96 5.722 12.078 3.836 22.146 8.898 30.196 15.25 7.999 6.338 13.885 13.023 17.613 20.038 3.725 7.036 5.601 13.908 5.601 20.614 0 6.235-2.417 11.89-7.127 16.846-4.709 4.963-10.733 7.493-17.768 7.47-6.342 0-11.317-1.463-14.767-4.56-3.36-2.996-6.889-7.766-10.706-14.414-4.825-9.276-10.604-16.503-17.324-21.672-6.543-5.073-17.338-7.714-32.359-7.682-13.898 0-25.018 2.84-33.411 8.394-8.445 5.643-12.482 12.19-12.501 19.861.014 4.807 1.396 8.86 4.177 12.326 2.824 3.498 6.753 6.529 11.803 9.084a81.825 81.825 0 0 0 15.355 6.046c5.225 1.481 13.894 3.622 25.944 6.457 15.112 3.257 28.819 6.896 41.136 10.862 12.293 3.986 22.784 8.793 31.451 14.52 8.736 5.71 15.564 12.99 20.438 21.783 4.909 8.807 7.354 19.564 7.354 32.222.019 15.242-4.227 28.95-12.689 41.084z" data-original="#000000" class="active-path" data-old_color="#ffffff" fill="#fff"/></symbol><symbol id="twitter" viewbox="0 0 612 612"><path d="M612 116.258a250.714 250.714 0 0 1-72.088 19.772c25.929-15.527 45.777-40.155 55.184-69.411-24.322 14.379-51.169 24.82-79.775 30.48-22.907-24.437-55.49-39.658-91.63-39.658-69.334 0-125.551 56.217-125.551 125.513 0 9.828 1.109 19.427 3.251 28.606-104.326-5.24-196.835-55.223-258.75-131.174-10.823 18.51-16.98 40.078-16.98 63.101 0 43.559 22.181 81.993 55.835 104.479a125.556 125.556 0 0 1-56.867-15.756v1.568c0 60.806 43.291 111.554 100.693 123.104-10.517 2.83-21.607 4.398-33.08 4.398-8.107 0-15.947-.803-23.634-2.333 15.985 49.907 62.336 86.199 117.253 87.194-42.947 33.654-97.099 53.655-155.916 53.655-10.134 0-20.116-.612-29.944-1.721 55.567 35.681 121.536 56.485 192.438 56.485 230.948 0 357.188-191.291 357.188-357.188l-.421-16.253c24.666-17.593 46.005-39.697 62.794-64.861z" data-original="#010002" class="active-path" data-old_color="#ffffff" fill="#fff"/></symbol></svg>